<svg width="126" height="38" viewBox="0 0 126 38" fill="none" xmlns="http://www.w3.org/2000/svg">
<path d="M113.77 37H110.687V21.166H115.499L118.378 33.6162L121.235 21.166H125.994V37H122.911V26.29C122.911 25.9821 122.915 25.5524 122.922 25.001C122.929 24.4424 122.933 24.0127 122.933 23.7119L119.936 37H116.724L113.748 23.7119C113.748 24.0127 113.752 24.4424 113.759 25.001C113.766 25.5524 113.77 25.9821 113.77 26.29V37Z" fill="#061D25"/>
<path d="M100.621 37.4404C98.3581 37.4404 96.6286 36.8245 95.4326 35.5928C93.8285 34.0817 93.0264 31.9046 93.0264 29.0615C93.0264 26.1611 93.8285 23.984 95.4326 22.5303C96.6286 21.2985 98.3581 20.6826 100.621 20.6826C102.884 20.6826 104.614 21.2985 105.81 22.5303C107.407 23.984 108.205 26.1611 108.205 29.0615C108.205 31.9046 107.407 34.0817 105.81 35.5928C104.614 36.8245 102.884 37.4404 100.621 37.4404ZM103.747 33.1865C104.513 32.2197 104.896 30.8447 104.896 29.0615C104.896 27.2855 104.51 25.9141 103.736 24.9473C102.97 23.9733 101.932 23.4863 100.621 23.4863C99.3105 23.4863 98.265 23.9697 97.4844 24.9365C96.7038 25.9033 96.3135 27.2783 96.3135 29.0615C96.3135 30.8447 96.7038 32.2197 97.4844 33.1865C98.265 34.1533 99.3105 34.6367 100.621 34.6367C101.932 34.6367 102.974 34.1533 103.747 33.1865ZM101.362 16.665H104.166V19.2109H101.362V16.665ZM97.0654 16.665H99.8691V19.2109H97.0654V16.665Z" fill="#061D25"/>
<path d="M84.4434 30.791H81.0273V37H77.7939V21.166H85.5605C86.6706 21.1875 87.5228 21.3236 88.1172 21.5742C88.7188 21.8249 89.2272 22.1937 89.6426 22.6807C89.9863 23.0817 90.2585 23.5257 90.459 24.0127C90.6595 24.4997 90.7598 25.0547 90.7598 25.6777C90.7598 26.4297 90.57 27.1709 90.1904 27.9014C89.8109 28.6247 89.1842 29.1367 88.3105 29.4375C89.041 29.7311 89.5566 30.1501 89.8574 30.6943C90.1654 31.2314 90.3193 32.055 90.3193 33.165V34.2285C90.3193 34.9518 90.348 35.4424 90.4053 35.7002C90.4912 36.1084 90.6917 36.4092 91.0068 36.6025V37H87.3652C87.265 36.6491 87.1934 36.3662 87.1504 36.1514C87.0645 35.7074 87.0179 35.2526 87.0107 34.7871L86.9893 33.3154C86.9749 32.3057 86.7887 31.6325 86.4307 31.2959C86.0798 30.9593 85.4173 30.791 84.4434 30.791ZM86.4521 27.9121C87.111 27.6113 87.4404 27.0169 87.4404 26.1289C87.4404 25.1693 87.1217 24.5247 86.4844 24.1953C86.1263 24.0091 85.5892 23.916 84.873 23.916H81.0273V28.1699H84.7764C85.5212 28.1699 86.0798 28.084 86.4521 27.9121Z" fill="#061D25"/>
<path d="M75.7744 21.166V23.9697H71.0371V37H67.707V23.9697H62.9482V21.166H75.7744Z" fill="#061D25"/>
<path d="M55.3428 34.7119C56.1234 34.7119 56.7572 34.626 57.2441 34.4541C58.168 34.1247 58.6299 33.5124 58.6299 32.6172C58.6299 32.0944 58.4007 31.6898 57.9424 31.4033C57.484 31.124 56.7643 30.877 55.7832 30.6621L54.1074 30.2861C52.4603 29.9137 51.3216 29.5091 50.6914 29.0723C49.6243 28.3418 49.0908 27.1995 49.0908 25.6455C49.0908 24.2275 49.6064 23.0495 50.6377 22.1113C51.6689 21.1732 53.1836 20.7041 55.1816 20.7041C56.8503 20.7041 58.2718 21.1481 59.4463 22.0361C60.6279 22.917 61.2474 24.1989 61.3047 25.8818H58.125C58.0677 24.9294 57.6523 24.2526 56.8789 23.8516C56.3633 23.5866 55.7223 23.4541 54.9561 23.4541C54.1038 23.4541 53.4235 23.626 52.915 23.9697C52.4066 24.3135 52.1523 24.7933 52.1523 25.4092C52.1523 25.9749 52.403 26.3975 52.9043 26.6768C53.2266 26.863 53.9141 27.0814 54.9668 27.332L57.6953 27.9873C58.8913 28.2738 59.7936 28.6569 60.4023 29.1367C61.3477 29.8815 61.8203 30.9593 61.8203 32.3701C61.8203 33.8167 61.2653 35.0199 60.1553 35.9795C59.0524 36.932 57.4912 37.4082 55.4717 37.4082C53.4092 37.4082 51.7871 36.9391 50.6055 36.001C49.4238 35.0557 48.833 33.7594 48.833 32.1123H51.9912C52.0915 32.8356 52.2884 33.3763 52.582 33.7344C53.1191 34.3861 54.0394 34.7119 55.3428 34.7119Z" fill="#061D25"/>
<path d="M42.1836 36.6133C41.3099 37.1504 40.2357 37.4189 38.9609 37.4189C36.8626 37.4189 35.1439 36.6921 33.8047 35.2383C32.4082 33.7773 31.71 31.7793 31.71 29.2441C31.71 26.6803 32.4154 24.625 33.8262 23.0781C35.237 21.5312 37.1025 20.7578 39.4229 20.7578C41.4352 20.7578 43.0501 21.2699 44.2676 22.2939C45.4922 23.3109 46.194 24.582 46.373 26.1074H43.1182C42.8675 25.026 42.2552 24.2705 41.2812 23.8408C40.737 23.6045 40.1318 23.4863 39.4658 23.4863C38.1911 23.4863 37.1419 23.9697 36.3184 24.9365C35.502 25.8962 35.0938 27.3428 35.0938 29.2764C35.0938 31.2243 35.5378 32.6029 36.4258 33.4121C37.3138 34.2214 38.3236 34.626 39.4551 34.626C40.5651 34.626 41.4746 34.3073 42.1836 33.6699C42.8926 33.0254 43.3294 32.1839 43.4941 31.1455H39.8311V28.5029H46.4268V37H44.2354L43.9023 35.0234C43.265 35.7754 42.6921 36.3053 42.1836 36.6133Z" fill="#061D25"/>
<path d="M25.8447 33.7451H20.0117L18.916 37H15.457L21.1074 21.166H24.8457L30.4531 37H26.8652L25.8447 33.7451ZM24.9209 31.0166L22.9443 24.7861L20.9033 31.0166H24.9209Z" fill="#061D25"/>
<path d="M10.1182 37V29.9316H3.93066V37H0.654297V21.166H3.93066V27.2031H10.1182V21.166H13.4053V37H10.1182Z" fill="#061D25"/>
<path d="M66.1924 12.7451H60.3594L59.2637 16H55.8047L61.4551 0.166016H65.1934L70.8008 16H67.2129L66.1924 12.7451ZM65.2686 10.0166L63.292 3.78613L61.251 10.0166H65.2686Z" fill="#061D25"/>
<path d="M50.541 0.166016H53.8281V16H50.541V0.166016Z" fill="#061D25"/>
<path d="M41.625 9.79102H38.209V16H34.9756V0.166016H42.7422C43.8522 0.1875 44.7044 0.323568 45.2988 0.574219C45.9004 0.82487 46.4089 1.19368 46.8242 1.68066C47.168 2.08171 47.4401 2.52572 47.6406 3.0127C47.8411 3.49967 47.9414 4.05469 47.9414 4.67773C47.9414 5.42969 47.7516 6.1709 47.3721 6.90137C46.9925 7.62467 46.3659 8.13672 45.4922 8.4375C46.2227 8.73112 46.7383 9.15007 47.0391 9.69434C47.347 10.2314 47.501 11.055 47.501 12.165V13.2285C47.501 13.9518 47.5296 14.4424 47.5869 14.7002C47.6729 15.1084 47.8734 15.4092 48.1885 15.6025V16H44.5469C44.4466 15.6491 44.375 15.3662 44.332 15.1514C44.2461 14.7074 44.1995 14.2526 44.1924 13.7871L44.1709 12.3154C44.1566 11.3057 43.9704 10.6325 43.6123 10.2959C43.2614 9.95931 42.599 9.79102 41.625 9.79102ZM43.6338 6.91211C44.2926 6.61133 44.6221 6.01693 44.6221 5.12891C44.6221 4.16927 44.3034 3.52474 43.666 3.19531C43.3079 3.00911 42.7708 2.91602 42.0547 2.91602H38.209V7.16992H41.958C42.7028 7.16992 43.2614 7.08398 43.6338 6.91211Z" fill="#061D25"/>
<path d="M28.2725 12.7451H22.4395L21.3438 16H17.8848L23.5352 0.166016H27.2734L32.8809 16H29.293L28.2725 12.7451ZM27.3486 10.0166L25.3721 3.78613L23.3311 10.0166H27.3486Z" fill="#061D25"/>
<path d="M3.70508 16H0.62207V0.166016H5.43457L8.31348 12.6162L11.1709 0.166016H15.9297V16H12.8467V5.29004C12.8467 4.9821 12.8503 4.55241 12.8574 4.00098C12.8646 3.44238 12.8682 3.0127 12.8682 2.71191L9.87109 16H6.65918L3.68359 2.71191C3.68359 3.0127 3.68717 3.44238 3.69434 4.00098C3.7015 4.55241 3.70508 4.9821 3.70508 5.29004V16Z" fill="#061D25"/>
</svg>
